<?xml version="1.0" encoding="UTF-8" standalone="no"?><svg xmlns="http://www.w3.org/2000/svg" xmlns:xlink="http://www.w3.org/1999/xlink" contentScriptType="application/ecmascript" contentStyleType="text/css" height="390px" preserveAspectRatio="none" style="width:271px;height:390px;" version="1.1" viewBox="0 0 271 390" width="271px" zoomAndPan="magnify"><defs><filter height="300%" id="f1lcelfz6knc3x" width="300%" x="-1" y="-1"><feGaussianBlur result="blurOut" stdDeviation="2.0"/><feColorMatrix in="blurOut" result="blurOut2" type="matrix" values="0 0 0 0 0 0 0 0 0 0 0 0 0 0 0 0 0 0 .4 0"/><feOffset dx="4.0" dy="4.0" in="blurOut2" result="blurOut3"/><feBlend in="SourceGraphic" in2="blurOut3" mode="normal"/></filter></defs><g><line style="stroke: #A80036; stroke-width: 1.0; stroke-dasharray: 5.0,5.0;" x1="34" x2="34" y1="35.9923" y2="352.8298"/><line style="stroke: #A80036; stroke-width: 1.0; stroke-dasharray: 5.0,5.0;" x1="233" x2="233" y1="35.9923" y2="352.8298"/><rect fill="#FEFECE" filter="url(#f1lcelfz6knc3x)" height="27.9923" style="stroke: #A80036; stroke-width: 1.5;" width="49" x="8" y="3"/><text fill="#000000" font-family="sans-serif" font-size="14" lengthAdjust="spacingAndGlyphs" textLength="35" x="15" y="21.3128">Client</text><rect fill="#FEFECE" filter="url(#f1lcelfz6knc3x)" height="27.9923" style="stroke: #A80036; stroke-width: 1.5;" width="49" x="8" y="351.8298"/><text fill="#000000" font-family="sans-serif" font-size="14" lengthAdjust="spacingAndGlyphs" textLength="35" x="15" y="370.1426">Client</text><rect fill="#FEFECE" filter="url(#f1lcelfz6knc3x)" height="27.9923" style="stroke: #A80036; stroke-width: 1.5;" width="57" x="203" y="3"/><text fill="#000000" font-family="sans-serif" font-size="14" lengthAdjust="spacingAndGlyphs" textLength="43" x="210" y="21.3128">Server</text><rect fill="#FEFECE" filter="url(#f1lcelfz6knc3x)" height="27.9923" style="stroke: #A80036; stroke-width: 1.5;" width="57" x="203" y="351.8298"/><text fill="#000000" font-family="sans-serif" font-size="14" lengthAdjust="spacingAndGlyphs" textLength="43" x="210" y="370.1426">Server</text><polygon fill="#A80036" points="221.5,60.9775,231.5,64.9775,221.5,68.9775,225.5,64.9775" style="stroke: #A80036; stroke-width: 1.0;"/><line style="stroke: #A80036; stroke-width: 1.0;" x1="34.5" x2="227.5" y1="64.9775" y2="64.9775"/><text fill="#000000" font-family="sans-serif" font-size="13" lengthAdjust="spacingAndGlyphs" textLength="79" x="41.5" y="60.4909">1.Client Hello</text><polygon fill="#A80036" points="45.5,87.9628,35.5,91.9628,45.5,95.9628,41.5,91.9628" style="stroke: #A80036; stroke-width: 1.0;"/><line style="stroke: #A80036; stroke-width: 1.0;" x1="39.5" x2="232.5" y1="91.9628" y2="91.9628"/><text fill="#000000" font-family="sans-serif" font-size="13" lengthAdjust="spacingAndGlyphs" textLength="90" x="51.5" y="87.4761">2. Server Hello</text><polygon fill="#A80036" points="45.5,114.948,35.5,118.948,45.5,122.948,41.5,118.948" style="stroke: #A80036; stroke-width: 1.0;"/><line style="stroke: #A80036; stroke-width: 1.0;" x1="39.5" x2="232.5" y1="118.948" y2="118.948"/><text fill="#000000" font-family="sans-serif" font-size="13" lengthAdjust="spacingAndGlyphs" textLength="116" x="51.5" y="114.4613">3. Server Certificate</text><polygon fill="#A80036" points="45.5,141.9332,35.5,145.9332,45.5,149.9332,41.5,145.9332" style="stroke: #A80036; stroke-width: 1.0;"/><line style="stroke: #A80036; stroke-width: 1.0;" x1="39.5" x2="232.5" y1="145.9332" y2="145.9332"/><text fill="#000000" font-family="sans-serif" font-size="13" lengthAdjust="spacingAndGlyphs" textLength="143" x="51.5" y="141.4465">4. Server Key Exchange</text><polygon fill="#A80036" points="45.5,168.9185,35.5,172.9185,45.5,176.9185,41.5,172.9185" style="stroke: #A80036; stroke-width: 1.0;"/><line style="stroke: #A80036; stroke-width: 1.0;" x1="39.5" x2="232.5" y1="172.9185" y2="172.9185"/><text fill="#000000" font-family="sans-serif" font-size="13" lengthAdjust="spacingAndGlyphs" textLength="127" x="51.5" y="168.4318">5. Server Hello Done</text><polygon fill="#A80036" points="221.5,195.9037,231.5,199.9037,221.5,203.9037,225.5,199.9037" style="stroke: #A80036; stroke-width: 1.0;"/><line style="stroke: #A80036; stroke-width: 1.0;" x1="34.5" x2="227.5" y1="199.9037" y2="199.9037"/><text fill="#000000" font-family="sans-serif" font-size="13" lengthAdjust="spacingAndGlyphs" textLength="138" x="41.5" y="195.417">6. Client Key Exchange</text><polygon fill="#A80036" points="221.5,222.8889,231.5,226.8889,221.5,230.8889,225.5,226.8889" style="stroke: #A80036; stroke-width: 1.0;"/><line style="stroke: #A80036; stroke-width: 1.0;" x1="34.5" x2="227.5" y1="226.8889" y2="226.8889"/><text fill="#000000" font-family="sans-serif" font-size="13" lengthAdjust="spacingAndGlyphs" textLength="137" x="41.5" y="222.4022">7. Change Cipher Spec</text><polygon fill="#A80036" points="221.5,249.8741,231.5,253.8741,221.5,257.8741,225.5,253.8741" style="stroke: #A80036; stroke-width: 1.0;"/><line style="stroke: #A80036; stroke-width: 1.0;" x1="34.5" x2="227.5" y1="253.8741" y2="253.8741"/><text fill="#000000" font-family="sans-serif" font-size="13" lengthAdjust="spacingAndGlyphs" textLength="165" x="41.5" y="249.3875">8.  Client Finished Message</text><polygon fill="#A80036" points="45.5,276.8594,35.5,280.8594,45.5,284.8594,41.5,280.8594" style="stroke: #A80036; stroke-width: 1.0;"/><line style="stroke: #A80036; stroke-width: 1.0;" x1="39.5" x2="232.5" y1="280.8594" y2="280.8594"/><text fill="#000000" font-family="sans-serif" font-size="13" lengthAdjust="spacingAndGlyphs" textLength="133" x="51.5" y="276.3727">9. New Session Ticket</text><polygon fill="#A80036" points="45.5,303.8446,35.5,307.8446,45.5,311.8446,41.5,307.8446" style="stroke: #A80036; stroke-width: 1.0;"/><line style="stroke: #A80036; stroke-width: 1.0;" x1="39.5" x2="232.5" y1="307.8446" y2="307.8446"/><text fill="#000000" font-family="sans-serif" font-size="13" lengthAdjust="spacingAndGlyphs" textLength="145" x="51.5" y="303.3579">10. Change Cipher Spec</text><polygon fill="#A80036" points="45.5,330.8298,35.5,334.8298,45.5,338.8298,41.5,334.8298" style="stroke: #A80036; stroke-width: 1.0;"/><line style="stroke: #A80036; stroke-width: 1.0;" x1="39.5" x2="232.5" y1="334.8298" y2="334.8298"/><text fill="#000000" font-family="sans-serif" font-size="13" lengthAdjust="spacingAndGlyphs" textLength="175" x="51.5" y="330.3432">11: Server Finished Message</text><!--
@startuml

Client->Server: 1.Client Hello
Server->Client: 2. Server Hello
Server->Client: 3. Server Certificate
Server->Client: 4. Server Key Exchange
Server->Client: 5. Server Hello Done
Client->Server: 6. Client Key Exchange
Client->Server: 7. Change Cipher Spec
Client->Server: 8.  Client Finished Message
Server->Client: 9. New Session Ticket
Server->Client: 10. Change Cipher Spec
Server->Client: 11: Server Finished Message

@enduml

PlantUML version 1.2018.06(Mon May 21 18:34:53 CST 2018)
(GPL source distribution)
Java Runtime: Java(TM) SE Runtime Environment
JVM: Java HotSpot(TM) 64-Bit Server VM
Java Version: 1.8.0_144-b01
Operating System: Linux
OS Version: 3.10.0-693.11.6.el7.x86_64
Default Encoding: UTF-8
Language: en
Country: US
--></g></svg>